<svg width="40" height="40" viewBox="0 0 40 40" fill="none" xmlns="http://www.w3.org/2000/svg">
      <rect width="40" height="40" rx="4" fill="black"/>
      <path d="M28.64 20.2045C28.64 19.5318 28.5832 18.9136 28.4695 18.3182H20.4091V21.8818H25.0441C24.8423 23.0045 24.2361 23.9545 23.327 24.5773V26.8864H26.0964C27.717 25.3727 28.64 23.0045 28.64 20.2045Z" fill="white"/>
      <path d="M20.4091 28.6364C22.6841 28.6364 24.5909 27.8682 25.96 26.5409L23.1907 24.2318C22.4216 24.7636 21.4625 25.1045 20.4091 25.1045C18.2125 25.1045 16.3507 23.6182 15.6823 21.6182H12.8225V23.8636C14.2361 26.6909 17.1136 28.6364 20.4091 28.6364Z" fill="white"/>
      <path d="M15.6823 21.6182C15.5118 21.1045 15.4109 20.5545 15.4109 20C15.4109 19.4455 15.5118 18.8955 15.6823 18.3818V16.1364H12.8225C12.2477 17.2955 11.9148 18.6091 11.9148 20C11.9148 21.3909 12.2477 22.7045 12.8225 23.8636L15.6823 21.6182Z" fill="white"/>
      <path d="M20.4091 14.8955C21.6455 14.8955 22.7561 15.3318 23.6305 16.1818L26.248 13.5636C24.6414 12.0682 22.7409 11.1364 20.4091 11.1364C17.1136 11.1364 14.2361 13.0818 12.8225 15.9091L15.6823 18.1545C16.3507 16.1545 18.2125 14.8955 20.4091 14.8955Z" fill="white"/>
    </svg>